# xmcd
# 
# Track frame offsets:
#     187
#     24725
#     46802
#     81677
#     100875
#     117370
#     144342
#     174455
#     200312
#     219617
#     239517
# 
# Disc length: 3570
# 
# Revision: 0
# Processed by: cddbd v1.5.2PL0 Copyright (c) Steve Scherf et al.
# Submitted via: BonkEnc v1.0.8
# 
DISCID=9c0df00b
DTITLE=Sonny Rollins - The Contemporary Leaders
DYEAR=1958
DGENRE=Jazz
TTITLE0=I've Told Ev'ry Little Star
TTITLE1=Rock-A-Bye Your Baby With A Dixie Melody
TTITLE2=How High The Moon
TTITLE3=You
TTITLE4=I've Found New A Baby
TTITLE5=Alone Together
TTITLE6=In The Chapel In The Moonlight
TTITLE7=The Song Is You
TTITLE8=You [alternate take, previously unreleased]
TTITLE9=I've Found New A Baby [alternate take, previously unreleased]
TTITLE10=The Song Is You [alternate take, previously unreleased]
EXTD=YEAR: 1958
EXTT0=
EXTT1=
EXTT2=
EXTT3=
EXTT4=
EXTT5=
EXTT6=
EXTT7=
EXTT8=
EXTT9=
EXTT10=
PLAYORDER=
